<?xml version="1.0" encoding="UTF-8"?>
<svg width="38px" height="48px" viewBox="0 0 38 48" version="1.1" xmlns="http://www.w3.org/2000/svg" xmlns:xlink="http://www.w3.org/1999/xlink">
    <!-- Generator: Sketch 51.2 (57519) - http://www.bohemiancoding.com/sketch -->
    <title>icon_light@2x</title>
    <desc>Created with Sketch.</desc>
    <defs></defs>
    <g id="Page-1" stroke="none" stroke-width="1" fill="none" fill-rule="evenodd">
        <g id="运动打卡-提示页面" transform="translate(-151.000000, -286.000000)">
            <g id="弹框／有图弹框" transform="translate(25.000000, 120.000000)">
                <g id="icon_light" transform="translate(120.000000, 165.000000)">
                    <g id="灯泡-(3)">
                        <g transform="translate(6.666667, 1.666667)" fill-rule="nonzero">
                            <path d="M15.3255385,44.0846154 C15.614359,45.8107692 17.0584615,46.9615385 18.7913846,46.9615385 C20.5243077,46.9615385 21.9684103,45.6669231 22.2572308,44.0846154 C24.5677949,43.9407692 26.3007179,42.0707692 26.3007179,39.7692308 L11.2820513,39.7692308 C11.2820513,42.0707692 13.1593846,43.9407692 15.3255385,44.0846154 Z" id="Shape" fill="#FA5858"></path>
                            <path d="M16.4254669,19.0373445 L13.885916,19.0373445 C13.2972873,19.0373445 12.8861815,18.434425 13.1010777,17.874232 L15.8666985,10.6107134 C15.9928333,10.2831429 16.3058343,10.0647626 16.6515369,10.0647626 L21.5567766,10.0647626 C22.1921219,10.0647626 22.598556,10.7531353 22.29957,11.3228231 L19.86582,15.9657781 L22.9863036,15.9657781 C23.8038435,15.9657781 24.2289643,16.9579843 23.6683655,17.5656512 L16.1937145,25.6837014 C15.5116526,26.4290429 14.3110368,25.7121858 14.6193661,24.7437167 L16.4254669,19.0373445 Z" id="Combined-Shape" fill="#FA5858"></path>
                            <path d="M18.3839779,0.5 C8.52706987,0.5 0.516881506,8.26230787 0.516881506,17.7476852 C0.516881506,22.2079053 3.47497785,26.8830218 8.10191302,30.766901 C9.0632875,31.4891054 9.59810171,32.694396 9.59810171,33.9803241 L9.59810171,35.4953704 C9.59810171,37.1523821 10.9805586,38.5665509 12.5554375,38.5665509 L24.1044766,38.5665509 C25.7477647,38.5665509 27.0618124,37.193139 27.0618124,35.4953704 L27.0618124,33.9803241 C27.0618124,32.7401069 27.5667403,31.6337792 28.5368966,30.7836637 C33.1849362,26.8830218 36.1430326,22.2079053 36.1430633,17.742139 C36.2480708,8.2760834 28.2562865,0.5 18.3839779,0.5 Z" id="Path" stroke="#FA5858"></path>
                        </g>
                    </g>
                </g>
            </g>
        </g>
    </g>
</svg>